# xmcd
#
# Track frame offsets: 
#        150
#        14009
#        26848
#        40202
#        56338
#        72461
#        85267
#        100021
#        115301
#        127299
#        142000
#        153239
#        166605
#        182011
#        196841
#
# Disc length: 2832 seconds
#
# Revision: 0
# Processed by: cddbd v1.5.2PL0 Copyright (c) Steve Scherf et al.
# Submitted via: ExactAudioCopyFreeDBPlugin 1.0
#
DISCID=cd0b0e0f
DTITLE=Ole Ivars - 34
DYEAR=2011
DGENRE=Danseband
TTITLE0=Kun en solskinnsdag
TTITLE1=Uten trailer'n stopper landet
TTITLE2=Kjærlige ord
TTITLE3=Vi vil takke deg
TTITLE4=Fancy (Instrumental)
TTITLE5=Natasha fra Moskva
TTITLE6=Fra bygda tel by'n
TTITLE7=Alle har sin egen stjerne
TTITLE8=Vi krangler om stort og smått
TTITLE9=Du er mere verdt enn all verdens gull
TTITLE10=Tenk om vinter'n forsvant
TTITLE11=Strengeleik (Instrumental)
TTITLE12=Brevet
TTITLE13=Ei krone avslag
TTITLE14=En times tid
EXTD=
EXTT0=
EXTT1=
EXTT2=
EXTT3=
EXTT4=
EXTT5=
EXTT6=
EXTT7=
EXTT8=
EXTT9=
EXTT10=
EXTT11=
EXTT12=
EXTT13=
EXTT14=
PLAYORDER=
